<?xml version="1.0" standalone="no"?>
<!DOCTYPE svg PUBLIC "-//W3C//DTD SVG 20010904//EN"
 "http://www.w3.org/TR/2001/REC-SVG-20010904/DTD/svg10.dtd">
<svg version="1.0" xmlns="http://www.w3.org/2000/svg"
 width="500.000000pt" height="260.000000pt" viewBox="0 0 500.000000 260.000000"
 preserveAspectRatio="xMidYMid meet">

<g transform="translate(0.000000,260.000000) scale(0.100000,-0.100000)"
fill="#000000" stroke="none">
<path d="M1135 1806 c-159 -26 -282 -74 -390 -151 -77 -54 -125 -111 -162
-191 -25 -52 -28 -71 -28 -159 0 -94 2 -104 36 -175 47 -96 91 -147 183 -208
178 -119 455 -169 711 -127 258 42 439 156 522 331 36 75 38 84 38 179 0 88
-3 107 -28 159 -72 155 -228 264 -457 323 -119 30 -308 39 -425 19z m422 -45
c93 -23 273 -105 280 -128 6 -18 -101 -45 -177 -45 -43 1 -89 9 -126 23 -33
11 -77 28 -99 36 -63 23 -190 14 -240 -17 -45 -28 -126 -48 -200 -49 -48 -1
-225 45 -225 58 0 12 133 78 200 100 169 56 407 65 587 22z m-73 -161 c42 -17
105 -33 141 -37 69 -6 171 9 219 34 28 14 29 14 67 -23 35 -34 89 -122 103
-170 6 -19 0 -23 -58 -38 -36 -9 -109 -32 -162 -50 l-96 -35 -146 126 c-81 69
-162 132 -180 140 -44 18 -80 7 -161 -53 -46 -35 -70 -46 -97 -46 -64 0 -62
15 14 91 110 110 197 125 356 61z m-644 -16 c94 -31 174 -39 224 -25 22 6 42
8 45 6 3 -3 -15 -25 -38 -49 -37 -38 -41 -46 -32 -64 13 -24 67 -38 107 -28
14 4 50 25 78 46 76 57 108 66 151 43 19 -10 100 -74 180 -143 145 -125 163
-148 133 -178 -23 -23 -53 -11 -116 44 -35 31 -66 54 -69 50 -4 -4 19 -32 50
-64 62 -63 69 -83 35 -106 -33 -24 -44 -20 -99 31 -62 58 -75 50 -19 -11 44
-47 46 -67 11 -85 -16 -9 -27 -4 -67 29 -63 52 -75 51 -29 -2 35 -41 35 -43
15 -52 -13 -6 -31 -6 -48 0 -23 8 -27 14 -24 42 3 25 -3 39 -26 62 -17 17 -38
30 -46 30 -9 0 -16 8 -16 19 0 30 -33 63 -66 65 -16 2 -42 11 -57 20 -18 12
-39 17 -64 14 -20 -3 -49 2 -64 9 -20 10 -34 11 -54 3 -22 -8 -37 -6 -80 15
-29 13 -99 38 -156 53 -70 20 -105 35 -107 45 -9 46 124 225 157 211 9 -4 50
-17 91 -30z m-160 -249 c52 -14 120 -37 152 -52 54 -24 58 -28 58 -59 0 -36
37 -74 71 -74 11 0 19 -7 19 -15 0 -17 36 -43 66 -48 11 -1 30 -13 42 -25 12
-12 34 -22 50 -22 16 0 37 -11 51 -25 25 -27 78 -34 98 -14 9 9 23 9 56 0 38
-11 49 -10 75 3 17 9 41 16 52 16 12 0 35 14 52 30 16 17 38 30 49 30 21 0 69
42 69 60 0 5 9 10 20 10 12 0 32 12 47 26 19 19 24 32 20 54 -6 25 -2 30 33
44 46 18 238 76 253 76 18 0 0 -105 -27 -163 -31 -64 -126 -159 -207 -205 -74
-41 -209 -87 -301 -102 -49 -8 -131 -11 -225 -8 -167 6 -269 30 -401 95 -96
47 -202 146 -238 220 -22 47 -46 173 -33 173 2 0 47 -11 99 -25z m314 -86 c14
-20 16 -20 37 -5 32 22 54 20 76 -8 15 -18 26 -23 46 -19 39 8 70 -22 63 -59
-5 -25 -3 -27 32 -30 62 -5 77 -76 22 -105 -30 -15 -62 -3 -78 30 -11 23 -16
25 -31 15 -15 -9 -24 -8 -45 5 -14 10 -26 24 -26 32 0 11 -7 14 -25 9 -32 -8
-65 19 -65 52 0 21 -3 23 -32 17 -48 -10 -76 37 -42 71 22 22 50 20 68 -5z"/>
<path d="M4183 1755 c-32 -13 -33 -16 -33 -70 0 -60 -4 -64 -33 -38 -23 21
-85 23 -120 4 -38 -20 -61 -76 -61 -146 1 -107 45 -155 146 -155 62 0 113 26
128 66 6 15 9 98 8 189 l-3 163 -32 -13z m-63 -173 c27 -22 37 -95 18 -132
-32 -59 -111 -44 -124 24 -16 90 48 155 106 108z"/>
<path d="M2334 1659 c-16 -5 -41 -20 -55 -35 -22 -24 -24 -34 -27 -150 l-4
-124 41 0 41 0 0 115 c0 103 2 115 19 125 29 15 56 12 74 -8 14 -15 17 -40 17
-126 l0 -107 38 3 37 3 2 95 c1 52 2 103 2 113 1 26 45 43 76 29 24 -11 25
-15 25 -107 0 -112 9 -135 50 -135 l30 0 0 115 c0 132 -11 165 -61 185 -36 15
-125 16 -143 1 -8 -7 -25 -6 -51 4 -45 16 -67 17 -111 4z"/>
<path d="M2835 1656 c-139 -64 -120 -279 27 -302 20 -4 53 -3 72 0 37 7 96 57
96 82 0 21 -57 17 -87 -6 -34 -27 -69 -25 -98 5 -48 47 -37 55 85 55 l110 0 0
25 c0 41 -30 104 -60 125 -37 26 -107 34 -145 16z m100 -71 c39 -38 32 -45
-45 -45 -42 0 -70 4 -70 10 0 19 48 60 70 60 12 0 32 -11 45 -25z"/>
<path d="M3192 1660 c-78 -19 -102 -67 -102 -205 l0 -105 40 0 40 0 0 96 c0
52 5 104 10 115 7 11 26 21 51 25 39 7 40 8 37 43 -3 40 -17 46 -76 31z"/>
<path d="M3370 1651 c-96 -51 -107 -209 -18 -274 36 -27 114 -33 160 -14 37
15 60 43 73 85 6 20 3 22 -33 22 -32 0 -41 -5 -50 -25 -22 -48 -91 -45 -117 5
-27 53 -15 117 29 146 33 21 74 11 86 -21 8 -20 17 -25 44 -25 45 0 52 13 29
53 -36 63 -133 86 -203 48z"/>
<path d="M3700 1663 c-29 -11 -60 -47 -60 -70 0 -19 5 -23 30 -23 17 0 39 9
50 20 11 11 27 20 36 20 24 0 54 -19 54 -35 0 -15 -13 -20 -75 -31 -51 -9 -91
-29 -99 -49 -8 -21 -8 -79 0 -100 17 -43 121 -59 184 -27 48 24 70 71 70 154
0 87 -12 116 -55 133 -34 15 -106 19 -135 8z m110 -183 c0 -59 -75 -93 -104
-47 -17 26 4 50 55 63 24 7 45 12 47 13 1 1 2 -12 2 -29z"/>
<path d="M4365 1656 c-86 -38 -117 -163 -61 -248 39 -60 162 -77 224 -31 59
43 80 144 44 213 -34 65 -136 97 -207 66z m99 -57 c43 -20 59 -96 31 -148 -15
-31 -33 -41 -70 -41 -62 0 -91 125 -40 175 27 28 42 30 79 14z"/>
<path d="M2787 1282 c-15 -16 -17 -46 -17 -205 l0 -187 40 0 40 0 0 205 0 205
-23 0 c-13 0 -31 -8 -40 -18z"/>
<path d="M2930 1265 c0 -34 1 -35 40 -35 39 0 40 1 40 35 0 34 -1 35 -40 35
-39 0 -40 -1 -40 -35z"/>
<path d="M3107 1282 c-14 -15 -17 -42 -17 -156 0 -196 21 -231 140 -231 93 0
131 33 146 123 8 54 -12 135 -41 162 -35 33 -99 38 -135 11 -16 -11 -31 -21
-33 -21 -1 0 -1 29 1 65 4 64 4 65 -20 65 -14 0 -32 -8 -41 -18z m167 -158
c31 -30 34 -116 5 -150 -17 -21 -73 -17 -93 5 -23 25 -23 103 -2 136 19 29 66
34 90 9z"/>
<path d="M3529 1201 c-82 -26 -99 -61 -99 -205 l0 -106 34 0 34 0 4 101 c3 92
5 103 27 120 13 10 35 19 50 19 24 0 26 3 25 37 -1 33 -4 38 -25 40 -13 1 -36
-2 -50 -6z"/>
<path d="M3710 1188 c-54 -28 -80 -74 -80 -143 0 -111 97 -180 204 -145 33 11
86 60 86 81 0 17 -62 9 -87 -11 -48 -37 -123 -13 -123 40 0 19 7 20 111 20
l112 0 -7 42 c-9 58 -35 97 -78 119 -49 25 -84 24 -138 -3z m110 -58 c38 -38
27 -50 -45 -50 -73 0 -84 14 -39 49 33 26 58 27 84 1z"/>
<path d="M2930 1040 l0 -150 40 0 40 0 0 150 0 150 -40 0 -40 0 0 -150z"/>
</g>
</svg>
